<?xml version="1.0" encoding="utf-8"?>
<!-- Generator: Adobe Illustrator 15.0.2, SVG Export Plug-In . SVG Version: 6.00 Build 0)  -->
<svg version="1.2" baseProfile="tiny" id="Layer_1" xmlns="http://www.w3.org/2000/svg" xmlns:xlink="http://www.w3.org/1999/xlink"
	 x="0px" y="0px" width="233.583px" height="181.344px" viewBox="0 0 233.583 181.344" overflow="inherit" xml:space="preserve">
<g>
	<polygon fill-rule="evenodd" fill="#C1CEDA" points="78.931,23.018 81.035,23.717 83.139,23.717 84.542,25.113 85.945,25.812 
		87.347,27.209 88.049,29.305 88.049,31.4 88.75,32.797 88.049,34.893 88.049,36.988 87.347,38.385 85.945,40.48 84.542,41.179 
		83.139,42.576 81.035,43.273 78.931,43.273 77.529,43.273 75.424,42.576 74.021,41.179 72.619,40.48 71.216,38.385 70.515,36.988 
		69.813,34.893 69.813,32.797 69.813,31.4 70.515,29.305 71.216,27.209 72.619,25.812 74.021,25.113 75.424,23.717 77.529,23.717 	
		"/>
	<polygon fill="none" stroke="#FFFFFF" stroke-width="0" stroke-linecap="square" stroke-miterlimit="10" points="78.931,23.018 
		81.035,23.717 83.139,23.717 84.542,25.113 85.945,25.812 87.347,27.209 88.049,29.305 88.049,31.4 88.75,32.797 88.049,34.893 
		88.049,36.988 87.347,38.385 85.945,40.48 84.542,41.179 83.139,42.576 81.035,43.273 78.931,43.273 77.529,43.273 75.424,42.576 
		74.021,41.179 72.619,40.48 71.216,38.385 70.515,36.988 69.813,34.893 69.813,32.797 69.813,31.4 70.515,29.305 71.216,27.209 
		72.619,25.812 74.021,25.113 75.424,23.717 77.529,23.717 	"/>
	<polyline fill="none" stroke="#3A3A3D" stroke-width="0" stroke-linecap="square" stroke-miterlimit="10" points="78.931,23.018 
		81.035,23.717 83.139,23.717 84.542,25.113 85.945,25.812 87.347,27.209 88.049,29.305 88.049,31.4 88.75,32.797 88.049,34.893 
		88.049,36.988 87.347,38.385 85.945,40.48 84.542,41.179 83.139,42.576 81.035,43.273 78.931,43.273 77.529,43.273 75.424,42.576 
		74.021,41.179 72.619,40.48 71.216,38.385 70.515,36.988 69.813,34.893 69.813,32.797 69.813,31.4 70.515,29.305 71.216,27.209 
		72.619,25.812 74.021,25.113 75.424,23.717 77.529,23.717 78.931,23.018 	"/>
	<polygon fill-rule="evenodd" fill="#C1CEDA" points="78.931,49.561 81.035,49.561 83.139,50.259 84.542,51.656 85.945,52.354 
		87.347,54.449 88.049,55.847 88.049,57.244 88.75,59.339 88.049,61.435 88.049,63.529 87.347,64.927 85.945,66.324 84.542,67.721 
		83.139,68.42 81.035,69.117 78.931,69.816 77.529,69.117 75.424,68.42 74.021,67.721 72.619,66.324 71.216,64.927 70.515,63.529 
		69.813,61.435 69.813,59.339 69.813,57.244 70.515,55.847 71.216,54.449 72.619,52.354 74.021,51.656 75.424,50.259 77.529,49.561 
			"/>
	<polygon fill="none" stroke="#FFFFFF" stroke-width="0" stroke-linecap="square" stroke-miterlimit="10" points="78.931,49.561 
		81.035,49.561 83.139,50.259 84.542,51.656 85.945,52.354 87.347,54.449 88.049,55.847 88.049,57.244 88.75,59.339 88.049,61.435 
		88.049,63.529 87.347,64.927 85.945,66.324 84.542,67.721 83.139,68.42 81.035,69.117 78.931,69.816 77.529,69.117 75.424,68.42 
		74.021,67.721 72.619,66.324 71.216,64.927 70.515,63.529 69.813,61.435 69.813,59.339 69.813,57.244 70.515,55.847 71.216,54.449 
		72.619,52.354 74.021,51.656 75.424,50.259 77.529,49.561 	"/>
	<polyline fill="none" stroke="#3A3A3D" stroke-width="0" stroke-linecap="square" stroke-miterlimit="10" points="78.931,49.561 
		81.035,49.561 83.139,50.259 84.542,51.656 85.945,52.354 87.347,54.449 88.049,55.847 88.049,57.244 88.75,59.339 88.049,61.435 
		88.049,63.529 87.347,64.927 85.945,66.324 84.542,67.721 83.139,68.42 81.035,69.117 78.931,69.816 77.529,69.117 75.424,68.42 
		74.021,67.721 72.619,66.324 71.216,64.927 70.515,63.529 69.813,61.435 69.813,59.339 69.813,57.244 70.515,55.847 71.216,54.449 
		72.619,52.354 74.021,51.656 75.424,50.259 77.529,49.561 78.931,49.561 	"/>
	<polygon fill-rule="evenodd" fill="#C1CEDA" points="78.931,76.103 81.035,76.103 83.139,76.801 84.542,77.5 85.945,78.896 
		87.347,80.293 88.049,82.389 88.049,83.786 88.75,85.881 88.049,87.977 88.049,90.072 87.347,91.469 85.945,92.866 84.542,94.264 
		83.139,94.962 81.035,95.66 78.931,95.66 77.529,95.66 75.424,94.962 74.021,94.264 72.619,92.866 71.216,91.469 70.515,90.072 
		69.813,87.977 69.813,85.881 69.813,83.786 70.515,82.389 71.216,80.293 72.619,78.896 74.021,77.5 75.424,76.801 77.529,76.103 	
		"/>
	<polygon fill="none" stroke="#FFFFFF" stroke-width="0" stroke-linecap="square" stroke-miterlimit="10" points="78.931,76.103 
		81.035,76.103 83.139,76.801 84.542,77.5 85.945,78.896 87.347,80.293 88.049,82.389 88.049,83.786 88.75,85.881 88.049,87.977 
		88.049,90.072 87.347,91.469 85.945,92.866 84.542,94.264 83.139,94.962 81.035,95.66 78.931,95.66 77.529,95.66 75.424,94.962 
		74.021,94.264 72.619,92.866 71.216,91.469 70.515,90.072 69.813,87.977 69.813,85.881 69.813,83.786 70.515,82.389 71.216,80.293 
		72.619,78.896 74.021,77.5 75.424,76.801 77.529,76.103 	"/>
	<polyline fill="none" stroke="#3A3A3D" stroke-width="0" stroke-linecap="square" stroke-miterlimit="10" points="78.931,76.103 
		81.035,76.103 83.139,76.801 84.542,77.5 85.945,78.896 87.347,80.293 88.049,82.389 88.049,83.786 88.75,85.881 88.049,87.977 
		88.049,90.072 87.347,91.469 85.945,92.866 84.542,94.264 83.139,94.962 81.035,95.66 78.931,95.66 77.529,95.66 75.424,94.962 
		74.021,94.264 72.619,92.866 71.216,91.469 70.515,90.072 69.813,87.977 69.813,85.881 69.813,83.786 70.515,82.389 71.216,80.293 
		72.619,78.896 74.021,77.5 75.424,76.801 77.529,76.103 78.931,76.103 	"/>
	<polygon fill-rule="evenodd" fill="#C1CEDA" points="78.931,102.645 81.035,102.645 83.139,103.344 84.542,104.042 85.945,105.438 
		87.347,106.836 88.049,108.232 88.049,110.328 88.75,112.424 88.049,114.52 88.049,115.916 87.347,118.012 85.945,119.408 
		84.542,120.806 83.139,121.504 81.035,122.202 78.931,122.202 77.529,122.202 75.424,121.504 74.021,120.806 72.619,119.408 
		71.216,118.012 70.515,115.916 69.813,114.52 69.813,112.424 69.813,110.328 70.515,108.232 71.216,106.836 72.619,105.438 
		74.021,104.042 75.424,103.344 77.529,102.645 	"/>
	<polygon fill="none" stroke="#FFFFFF" stroke-width="0" stroke-linecap="square" stroke-miterlimit="10" points="78.931,102.645 
		81.035,102.645 83.139,103.344 84.542,104.042 85.945,105.438 87.347,106.836 88.049,108.232 88.049,110.328 88.75,112.424 
		88.049,114.52 88.049,115.916 87.347,118.012 85.945,119.408 84.542,120.806 83.139,121.504 81.035,122.202 78.931,122.202 
		77.529,122.202 75.424,121.504 74.021,120.806 72.619,119.408 71.216,118.012 70.515,115.916 69.813,114.52 69.813,112.424 
		69.813,110.328 70.515,108.232 71.216,106.836 72.619,105.438 74.021,104.042 75.424,103.344 77.529,102.645 	"/>
	<polyline fill="none" stroke="#3A3A3D" stroke-width="0" stroke-linecap="square" stroke-miterlimit="10" points="78.931,102.645 
		81.035,102.645 83.139,103.344 84.542,104.042 85.945,105.438 87.347,106.836 88.049,108.232 88.049,110.328 88.75,112.424 
		88.049,114.52 88.049,115.916 87.347,118.012 85.945,119.408 84.542,120.806 83.139,121.504 81.035,122.202 78.931,122.202 
		77.529,122.202 75.424,121.504 74.021,120.806 72.619,119.408 71.216,118.012 70.515,115.916 69.813,114.52 69.813,112.424 
		69.813,110.328 70.515,108.232 71.216,106.836 72.619,105.438 74.021,104.042 75.424,103.344 77.529,102.645 78.931,102.645 	"/>
	<polygon fill-rule="evenodd" fill="#C1CEDA" points="78.931,128.489 81.035,129.188 83.139,129.886 84.542,130.584 85.945,131.981 
		87.347,133.378 88.049,134.775 88.049,136.87 88.75,138.966 88.049,141.062 88.049,142.458 87.347,143.855 85.945,145.951 
		84.542,146.649 83.139,148.046 81.035,148.745 78.931,148.745 77.529,148.745 75.424,148.046 74.021,146.649 72.619,145.951 
		71.216,143.855 70.515,142.458 69.813,141.062 69.813,138.966 69.813,136.87 70.515,134.775 71.216,133.378 72.619,131.981 
		74.021,130.584 75.424,129.886 77.529,129.188 	"/>
	<polygon fill="none" stroke="#FFFFFF" stroke-width="0" stroke-linecap="square" stroke-miterlimit="10" points="78.931,128.489 
		81.035,129.188 83.139,129.886 84.542,130.584 85.945,131.981 87.347,133.378 88.049,134.775 88.049,136.87 88.75,138.966 
		88.049,141.062 88.049,142.458 87.347,143.855 85.945,145.951 84.542,146.649 83.139,148.046 81.035,148.745 78.931,148.745 
		77.529,148.745 75.424,148.046 74.021,146.649 72.619,145.951 71.216,143.855 70.515,142.458 69.813,141.062 69.813,138.966 
		69.813,136.87 70.515,134.775 71.216,133.378 72.619,131.981 74.021,130.584 75.424,129.886 77.529,129.188 	"/>
	<polyline fill="none" stroke="#3A3A3D" stroke-width="0" stroke-linecap="square" stroke-miterlimit="10" points="78.931,128.489 
		81.035,129.188 83.139,129.886 84.542,130.584 85.945,131.981 87.347,133.378 88.049,134.775 88.049,136.87 88.75,138.966 
		88.049,141.062 88.049,142.458 87.347,143.855 85.945,145.951 84.542,146.649 83.139,148.046 81.035,148.745 78.931,148.745 
		77.529,148.745 75.424,148.046 74.021,146.649 72.619,145.951 71.216,143.855 70.515,142.458 69.813,141.062 69.813,138.966 
		69.813,136.87 70.515,134.775 71.216,133.378 72.619,131.981 74.021,130.584 75.424,129.886 77.529,129.188 78.931,128.489 	"/>
	<polygon fill-rule="evenodd" fill="#C1CEDA" points="78.931,155.031 81.035,155.729 83.139,155.729 84.542,157.127 85.945,157.825 
		87.347,159.921 88.049,161.317 88.049,163.413 88.75,165.509 88.049,166.905 88.049,169.001 87.347,171.097 85.945,172.493 
		84.542,173.191 83.139,174.589 81.035,174.589 78.931,175.287 77.529,174.589 75.424,174.589 74.021,173.191 72.619,172.493 
		71.216,171.097 70.515,169.001 69.813,166.905 69.813,165.509 69.813,163.413 70.515,161.317 71.216,159.921 72.619,157.825 
		74.021,157.127 75.424,155.729 77.529,155.729 	"/>
	<polygon fill="none" stroke="#FFFFFF" stroke-width="0" stroke-linecap="square" stroke-miterlimit="10" points="78.931,155.031 
		81.035,155.729 83.139,155.729 84.542,157.127 85.945,157.825 87.347,159.921 88.049,161.317 88.049,163.413 88.75,165.509 
		88.049,166.905 88.049,169.001 87.347,171.097 85.945,172.493 84.542,173.191 83.139,174.589 81.035,174.589 78.931,175.287 
		77.529,174.589 75.424,174.589 74.021,173.191 72.619,172.493 71.216,171.097 70.515,169.001 69.813,166.905 69.813,165.509 
		69.813,163.413 70.515,161.317 71.216,159.921 72.619,157.825 74.021,157.127 75.424,155.729 77.529,155.729 	"/>
	<polyline fill="none" stroke="#3A3A3D" stroke-width="0" stroke-linecap="square" stroke-miterlimit="10" points="78.931,155.031 
		81.035,155.729 83.139,155.729 84.542,157.127 85.945,157.825 87.347,159.921 88.049,161.317 88.049,163.413 88.75,165.509 
		88.049,166.905 88.049,169.001 87.347,171.097 85.945,172.493 84.542,173.191 83.139,174.589 81.035,174.589 78.931,175.287 
		77.529,174.589 75.424,174.589 74.021,173.191 72.619,172.493 71.216,171.097 70.515,169.001 69.813,166.905 69.813,165.509 
		69.813,163.413 70.515,161.317 71.216,159.921 72.619,157.825 74.021,157.127 75.424,155.729 77.529,155.729 78.931,155.031 	"/>
	<polygon fill-rule="evenodd" fill="#C1CEDA" points="116.806,23.018 118.208,23.717 120.313,23.717 121.715,25.113 123.118,25.812 
		124.522,27.209 125.223,29.305 125.223,31.4 125.924,32.797 125.223,34.893 125.223,36.988 124.522,38.385 123.118,40.48 
		121.715,41.179 120.313,42.576 118.208,43.273 116.806,43.273 114.702,43.273 112.597,42.576 111.195,41.179 109.792,40.48 
		108.389,38.385 107.688,36.988 107.688,34.893 106.986,32.797 107.688,31.4 107.688,29.305 108.389,27.209 109.792,25.812 
		111.195,25.113 112.597,23.717 114.702,23.717 	"/>
	<polygon fill="none" stroke="#FFFFFF" stroke-width="0" stroke-linecap="square" stroke-miterlimit="10" points="116.806,23.018 
		118.208,23.717 120.313,23.717 121.715,25.113 123.118,25.812 124.522,27.209 125.223,29.305 125.223,31.4 125.924,32.797 
		125.223,34.893 125.223,36.988 124.522,38.385 123.118,40.48 121.715,41.179 120.313,42.576 118.208,43.273 116.806,43.273 
		114.702,43.273 112.597,42.576 111.195,41.179 109.792,40.48 108.389,38.385 107.688,36.988 107.688,34.893 106.986,32.797 
		107.688,31.4 107.688,29.305 108.389,27.209 109.792,25.812 111.195,25.113 112.597,23.717 114.702,23.717 	"/>
	<polyline fill="none" stroke="#3A3A3D" stroke-width="0" stroke-linecap="square" stroke-miterlimit="10" points="116.806,23.018 
		118.208,23.717 120.313,23.717 121.715,25.113 123.118,25.812 124.522,27.209 125.223,29.305 125.223,31.4 125.924,32.797 
		125.223,34.893 125.223,36.988 124.522,38.385 123.118,40.48 121.715,41.179 120.313,42.576 118.208,43.273 116.806,43.273 
		114.702,43.273 112.597,42.576 111.195,41.179 109.792,40.48 108.389,38.385 107.688,36.988 107.688,34.893 106.986,32.797 
		107.688,31.4 107.688,29.305 108.389,27.209 109.792,25.812 111.195,25.113 112.597,23.717 114.702,23.717 116.806,23.018 	"/>
	<polygon fill-rule="evenodd" fill="#C1CEDA" points="116.806,49.561 118.208,49.561 120.313,50.259 121.715,51.656 123.118,52.354 
		124.522,54.449 125.223,55.847 125.223,57.244 125.924,59.339 125.223,61.435 125.223,63.529 124.522,64.927 123.118,66.324 
		121.715,67.721 120.313,68.42 118.208,69.117 116.806,69.816 114.702,69.117 112.597,68.42 111.195,67.721 109.792,66.324 
		108.389,64.927 107.688,63.529 107.688,61.435 106.986,59.339 107.688,57.244 107.688,55.847 108.389,54.449 109.792,52.354 
		111.195,51.656 112.597,50.259 114.702,49.561 	"/>
	<polygon fill="none" stroke="#FFFFFF" stroke-width="0" stroke-linecap="square" stroke-miterlimit="10" points="116.806,49.561 
		118.208,49.561 120.313,50.259 121.715,51.656 123.118,52.354 124.522,54.449 125.223,55.847 125.223,57.244 125.924,59.339 
		125.223,61.435 125.223,63.529 124.522,64.927 123.118,66.324 121.715,67.721 120.313,68.42 118.208,69.117 116.806,69.816 
		114.702,69.117 112.597,68.42 111.195,67.721 109.792,66.324 108.389,64.927 107.688,63.529 107.688,61.435 106.986,59.339 
		107.688,57.244 107.688,55.847 108.389,54.449 109.792,52.354 111.195,51.656 112.597,50.259 114.702,49.561 	"/>
	<polyline fill="none" stroke="#3A3A3D" stroke-width="0" stroke-linecap="square" stroke-miterlimit="10" points="116.806,49.561 
		118.208,49.561 120.313,50.259 121.715,51.656 123.118,52.354 124.522,54.449 125.223,55.847 125.223,57.244 125.924,59.339 
		125.223,61.435 125.223,63.529 124.522,64.927 123.118,66.324 121.715,67.721 120.313,68.42 118.208,69.117 116.806,69.816 
		114.702,69.117 112.597,68.42 111.195,67.721 109.792,66.324 108.389,64.927 107.688,63.529 107.688,61.435 106.986,59.339 
		107.688,57.244 107.688,55.847 108.389,54.449 109.792,52.354 111.195,51.656 112.597,50.259 114.702,49.561 116.806,49.561 	"/>
	<polygon fill-rule="evenodd" fill="#C1CEDA" points="116.806,76.103 118.208,76.103 120.313,76.801 121.715,77.5 123.118,78.896 
		124.522,80.293 125.223,82.389 125.223,83.786 125.924,85.881 125.223,87.977 125.223,90.072 124.522,91.469 123.118,92.866 
		121.715,94.264 120.313,94.962 118.208,95.66 116.806,95.66 114.702,95.66 112.597,94.962 111.195,94.264 109.792,92.866 
		108.389,91.469 107.688,90.072 107.688,87.977 106.986,85.881 107.688,83.786 107.688,82.389 108.389,80.293 109.792,78.896 
		111.195,77.5 112.597,76.801 114.702,76.103 	"/>
	<polygon fill="none" stroke="#FFFFFF" stroke-width="0" stroke-linecap="square" stroke-miterlimit="10" points="116.806,76.103 
		118.208,76.103 120.313,76.801 121.715,77.5 123.118,78.896 124.522,80.293 125.223,82.389 125.223,83.786 125.924,85.881 
		125.223,87.977 125.223,90.072 124.522,91.469 123.118,92.866 121.715,94.264 120.313,94.962 118.208,95.66 116.806,95.66 
		114.702,95.66 112.597,94.962 111.195,94.264 109.792,92.866 108.389,91.469 107.688,90.072 107.688,87.977 106.986,85.881 
		107.688,83.786 107.688,82.389 108.389,80.293 109.792,78.896 111.195,77.5 112.597,76.801 114.702,76.103 	"/>
	<polyline fill="none" stroke="#3A3A3D" stroke-width="0" stroke-linecap="square" stroke-miterlimit="10" points="116.806,76.103 
		118.208,76.103 120.313,76.801 121.715,77.5 123.118,78.896 124.522,80.293 125.223,82.389 125.223,83.786 125.924,85.881 
		125.223,87.977 125.223,90.072 124.522,91.469 123.118,92.866 121.715,94.264 120.313,94.962 118.208,95.66 116.806,95.66 
		114.702,95.66 112.597,94.962 111.195,94.264 109.792,92.866 108.389,91.469 107.688,90.072 107.688,87.977 106.986,85.881 
		107.688,83.786 107.688,82.389 108.389,80.293 109.792,78.896 111.195,77.5 112.597,76.801 114.702,76.103 116.806,76.103 	"/>
	<polygon fill-rule="evenodd" fill="#C1CEDA" points="116.806,102.645 118.208,102.645 120.313,103.344 121.715,104.042 
		123.118,105.438 124.522,106.836 125.223,108.232 125.223,110.328 125.924,112.424 125.223,114.52 125.223,115.916 
		124.522,118.012 123.118,119.408 121.715,120.806 120.313,121.504 118.208,122.202 116.806,122.202 114.702,122.202 
		112.597,121.504 111.195,120.806 109.792,119.408 108.389,118.012 107.688,115.916 107.688,114.52 106.986,112.424 
		107.688,110.328 107.688,108.232 108.389,106.836 109.792,105.438 111.195,104.042 112.597,103.344 114.702,102.645 	"/>
	<polygon fill="none" stroke="#FFFFFF" stroke-width="0" stroke-linecap="square" stroke-miterlimit="10" points="116.806,102.645 
		118.208,102.645 120.313,103.344 121.715,104.042 123.118,105.438 124.522,106.836 125.223,108.232 125.223,110.328 
		125.924,112.424 125.223,114.52 125.223,115.916 124.522,118.012 123.118,119.408 121.715,120.806 120.313,121.504 
		118.208,122.202 116.806,122.202 114.702,122.202 112.597,121.504 111.195,120.806 109.792,119.408 108.389,118.012 
		107.688,115.916 107.688,114.52 106.986,112.424 107.688,110.328 107.688,108.232 108.389,106.836 109.792,105.438 
		111.195,104.042 112.597,103.344 114.702,102.645 	"/>
	<polyline fill="none" stroke="#3A3A3D" stroke-width="0" stroke-linecap="square" stroke-miterlimit="10" points="116.806,102.645 
		118.208,102.645 120.313,103.344 121.715,104.042 123.118,105.438 124.522,106.836 125.223,108.232 125.223,110.328 
		125.924,112.424 125.223,114.52 125.223,115.916 124.522,118.012 123.118,119.408 121.715,120.806 120.313,121.504 
		118.208,122.202 116.806,122.202 114.702,122.202 112.597,121.504 111.195,120.806 109.792,119.408 108.389,118.012 
		107.688,115.916 107.688,114.52 106.986,112.424 107.688,110.328 107.688,108.232 108.389,106.836 109.792,105.438 
		111.195,104.042 112.597,103.344 114.702,102.645 116.806,102.645 	"/>
	<polygon fill-rule="evenodd" fill="#C1CEDA" points="116.806,128.489 118.208,129.188 120.313,129.886 121.715,130.584 
		123.118,131.981 124.522,133.378 125.223,134.775 125.223,136.87 125.924,138.966 125.223,141.062 125.223,142.458 
		124.522,143.855 123.118,145.951 121.715,146.649 120.313,148.046 118.208,148.745 116.806,148.745 114.702,148.745 
		112.597,148.046 111.195,146.649 109.792,145.951 108.389,143.855 107.688,142.458 107.688,141.062 106.986,138.966 
		107.688,136.87 107.688,134.775 108.389,133.378 109.792,131.981 111.195,130.584 112.597,129.886 114.702,129.188 	"/>
	<polygon fill="none" stroke="#FFFFFF" stroke-width="0" stroke-linecap="square" stroke-miterlimit="10" points="116.806,128.489 
		118.208,129.188 120.313,129.886 121.715,130.584 123.118,131.981 124.522,133.378 125.223,134.775 125.223,136.87 
		125.924,138.966 125.223,141.062 125.223,142.458 124.522,143.855 123.118,145.951 121.715,146.649 120.313,148.046 
		118.208,148.745 116.806,148.745 114.702,148.745 112.597,148.046 111.195,146.649 109.792,145.951 108.389,143.855 
		107.688,142.458 107.688,141.062 106.986,138.966 107.688,136.87 107.688,134.775 108.389,133.378 109.792,131.981 
		111.195,130.584 112.597,129.886 114.702,129.188 	"/>
	<polyline fill="none" stroke="#3A3A3D" stroke-width="0" stroke-linecap="square" stroke-miterlimit="10" points="116.806,128.489 
		118.208,129.188 120.313,129.886 121.715,130.584 123.118,131.981 124.522,133.378 125.223,134.775 125.223,136.87 
		125.924,138.966 125.223,141.062 125.223,142.458 124.522,143.855 123.118,145.951 121.715,146.649 120.313,148.046 
		118.208,148.745 116.806,148.745 114.702,148.745 112.597,148.046 111.195,146.649 109.792,145.951 108.389,143.855 
		107.688,142.458 107.688,141.062 106.986,138.966 107.688,136.87 107.688,134.775 108.389,133.378 109.792,131.981 
		111.195,130.584 112.597,129.886 114.702,129.188 116.806,128.489 	"/>
	<polygon fill-rule="evenodd" fill="#C1CEDA" points="116.806,155.031 118.208,155.729 120.313,155.729 121.715,157.127 
		123.118,157.825 124.522,159.921 125.223,161.317 125.223,163.413 125.924,165.509 125.223,166.905 125.223,169.001 
		124.522,171.097 123.118,172.493 121.715,173.191 120.313,174.589 118.208,174.589 116.806,175.287 114.702,174.589 
		112.597,174.589 111.195,173.191 109.792,172.493 108.389,171.097 107.688,169.001 107.688,166.905 106.986,165.509 
		107.688,163.413 107.688,161.317 108.389,159.921 109.792,157.825 111.195,157.127 112.597,155.729 114.702,155.729 	"/>
	<polygon fill="none" stroke="#FFFFFF" stroke-width="0" stroke-linecap="square" stroke-miterlimit="10" points="116.806,155.031 
		118.208,155.729 120.313,155.729 121.715,157.127 123.118,157.825 124.522,159.921 125.223,161.317 125.223,163.413 
		125.924,165.509 125.223,166.905 125.223,169.001 124.522,171.097 123.118,172.493 121.715,173.191 120.313,174.589 
		118.208,174.589 116.806,175.287 114.702,174.589 112.597,174.589 111.195,173.191 109.792,172.493 108.389,171.097 
		107.688,169.001 107.688,166.905 106.986,165.509 107.688,163.413 107.688,161.317 108.389,159.921 109.792,157.825 
		111.195,157.127 112.597,155.729 114.702,155.729 	"/>
	<polyline fill="none" stroke="#3A3A3D" stroke-width="0" stroke-linecap="square" stroke-miterlimit="10" points="116.806,155.031 
		118.208,155.729 120.313,155.729 121.715,157.127 123.118,157.825 124.522,159.921 125.223,161.317 125.223,163.413 
		125.924,165.509 125.223,166.905 125.223,169.001 124.522,171.097 123.118,172.493 121.715,173.191 120.313,174.589 
		118.208,174.589 116.806,175.287 114.702,174.589 112.597,174.589 111.195,173.191 109.792,172.493 108.389,171.097 
		107.688,169.001 107.688,166.905 106.986,165.509 107.688,163.413 107.688,161.317 108.389,159.921 109.792,157.825 
		111.195,157.127 112.597,155.729 114.702,155.729 116.806,155.031 	"/>
	<polygon fill-rule="evenodd" fill="#C1CEDA" points="153.979,23.018 155.381,23.717 157.487,23.717 158.889,25.113 160.292,25.812 
		161.694,27.209 162.397,29.305 163.098,31.4 163.098,32.797 163.098,34.893 162.397,36.988 161.694,38.385 160.292,40.48 
		158.889,41.179 157.487,42.576 155.381,43.273 153.979,43.273 151.875,43.273 150.473,42.576 148.368,41.179 146.965,40.48 
		146.264,38.385 144.862,36.988 144.862,34.893 144.161,32.797 144.862,31.4 144.862,29.305 146.264,27.209 146.965,25.812 
		148.368,25.113 150.473,23.717 151.875,23.717 	"/>
	<polygon fill="none" stroke="#FFFFFF" stroke-width="0" stroke-linecap="square" stroke-miterlimit="10" points="153.979,23.018 
		155.381,23.717 157.487,23.717 158.889,25.113 160.292,25.812 161.694,27.209 162.397,29.305 163.098,31.4 163.098,32.797 
		163.098,34.893 162.397,36.988 161.694,38.385 160.292,40.48 158.889,41.179 157.487,42.576 155.381,43.273 153.979,43.273 
		151.875,43.273 150.473,42.576 148.368,41.179 146.965,40.48 146.264,38.385 144.862,36.988 144.862,34.893 144.161,32.797 
		144.862,31.4 144.862,29.305 146.264,27.209 146.965,25.812 148.368,25.113 150.473,23.717 151.875,23.717 	"/>
	<polyline fill="none" stroke="#3A3A3D" stroke-width="0" stroke-linecap="square" stroke-miterlimit="10" points="153.979,23.018 
		155.381,23.717 157.487,23.717 158.889,25.113 160.292,25.812 161.694,27.209 162.397,29.305 163.098,31.4 163.098,32.797 
		163.098,34.893 162.397,36.988 161.694,38.385 160.292,40.48 158.889,41.179 157.487,42.576 155.381,43.273 153.979,43.273 
		151.875,43.273 150.473,42.576 148.368,41.179 146.965,40.48 146.264,38.385 144.862,36.988 144.862,34.893 144.161,32.797 
		144.862,31.4 144.862,29.305 146.264,27.209 146.965,25.812 148.368,25.113 150.473,23.717 151.875,23.717 153.979,23.018 	"/>
	<polygon fill-rule="evenodd" fill="#C1CEDA" points="153.979,49.561 155.381,49.561 157.487,50.259 158.889,51.656 160.292,52.354 
		161.694,54.449 162.397,55.847 163.098,57.244 163.098,59.339 163.098,61.435 162.397,63.529 161.694,64.927 160.292,66.324 
		158.889,67.721 157.487,68.42 155.381,69.117 153.979,69.816 151.875,69.117 150.473,68.42 148.368,67.721 146.965,66.324 
		146.264,64.927 144.862,63.529 144.862,61.435 144.161,59.339 144.862,57.244 144.862,55.847 146.264,54.449 146.965,52.354 
		148.368,51.656 150.473,50.259 151.875,49.561 	"/>
	<polygon fill="none" stroke="#FFFFFF" stroke-width="0" stroke-linecap="square" stroke-miterlimit="10" points="153.979,49.561 
		155.381,49.561 157.487,50.259 158.889,51.656 160.292,52.354 161.694,54.449 162.397,55.847 163.098,57.244 163.098,59.339 
		163.098,61.435 162.397,63.529 161.694,64.927 160.292,66.324 158.889,67.721 157.487,68.42 155.381,69.117 153.979,69.816 
		151.875,69.117 150.473,68.42 148.368,67.721 146.965,66.324 146.264,64.927 144.862,63.529 144.862,61.435 144.161,59.339 
		144.862,57.244 144.862,55.847 146.264,54.449 146.965,52.354 148.368,51.656 150.473,50.259 151.875,49.561 	"/>
	<polyline fill="none" stroke="#3A3A3D" stroke-width="0" stroke-linecap="square" stroke-miterlimit="10" points="153.979,49.561 
		155.381,49.561 157.487,50.259 158.889,51.656 160.292,52.354 161.694,54.449 162.397,55.847 163.098,57.244 163.098,59.339 
		163.098,61.435 162.397,63.529 161.694,64.927 160.292,66.324 158.889,67.721 157.487,68.42 155.381,69.117 153.979,69.816 
		151.875,69.117 150.473,68.42 148.368,67.721 146.965,66.324 146.264,64.927 144.862,63.529 144.862,61.435 144.161,59.339 
		144.862,57.244 144.862,55.847 146.264,54.449 146.965,52.354 148.368,51.656 150.473,50.259 151.875,49.561 153.979,49.561 	"/>
	<polygon fill-rule="evenodd" fill="#C1CEDA" points="153.979,76.103 155.381,76.103 157.487,76.801 158.889,77.5 160.292,78.896 
		161.694,80.293 162.397,82.389 163.098,83.786 163.098,85.881 163.098,87.977 162.397,90.072 161.694,91.469 160.292,92.866 
		158.889,94.264 157.487,94.962 155.381,95.66 153.979,95.66 151.875,95.66 150.473,94.962 148.368,94.264 146.965,92.866 
		146.264,91.469 144.862,90.072 144.862,87.977 144.161,85.881 144.862,83.786 144.862,82.389 146.264,80.293 146.965,78.896 
		148.368,77.5 150.473,76.801 151.875,76.103 	"/>
	<polygon fill="none" stroke="#FFFFFF" stroke-width="0" stroke-linecap="square" stroke-miterlimit="10" points="153.979,76.103 
		155.381,76.103 157.487,76.801 158.889,77.5 160.292,78.896 161.694,80.293 162.397,82.389 163.098,83.786 163.098,85.881 
		163.098,87.977 162.397,90.072 161.694,91.469 160.292,92.866 158.889,94.264 157.487,94.962 155.381,95.66 153.979,95.66 
		151.875,95.66 150.473,94.962 148.368,94.264 146.965,92.866 146.264,91.469 144.862,90.072 144.862,87.977 144.161,85.881 
		144.862,83.786 144.862,82.389 146.264,80.293 146.965,78.896 148.368,77.5 150.473,76.801 151.875,76.103 	"/>
	<polyline fill="none" stroke="#3A3A3D" stroke-width="0" stroke-linecap="square" stroke-miterlimit="10" points="153.979,76.103 
		155.381,76.103 157.487,76.801 158.889,77.5 160.292,78.896 161.694,80.293 162.397,82.389 163.098,83.786 163.098,85.881 
		163.098,87.977 162.397,90.072 161.694,91.469 160.292,92.866 158.889,94.264 157.487,94.962 155.381,95.66 153.979,95.66 
		151.875,95.66 150.473,94.962 148.368,94.264 146.965,92.866 146.264,91.469 144.862,90.072 144.862,87.977 144.161,85.881 
		144.862,83.786 144.862,82.389 146.264,80.293 146.965,78.896 148.368,77.5 150.473,76.801 151.875,76.103 153.979,76.103 	"/>
	<polygon fill-rule="evenodd" fill="#C1CEDA" points="153.979,102.645 155.381,102.645 157.487,103.344 158.889,104.042 
		160.292,105.438 161.694,106.836 162.397,108.232 163.098,110.328 163.098,112.424 163.098,114.52 162.397,115.916 
		161.694,118.012 160.292,119.408 158.889,120.806 157.487,121.504 155.381,122.202 153.979,122.202 151.875,122.202 
		150.473,121.504 148.368,120.806 146.965,119.408 146.264,118.012 144.862,115.916 144.862,114.52 144.161,112.424 
		144.862,110.328 144.862,108.232 146.264,106.836 146.965,105.438 148.368,104.042 150.473,103.344 151.875,102.645 	"/>
	<polygon fill="none" stroke="#FFFFFF" stroke-width="0" stroke-linecap="square" stroke-miterlimit="10" points="153.979,102.645 
		155.381,102.645 157.487,103.344 158.889,104.042 160.292,105.438 161.694,106.836 162.397,108.232 163.098,110.328 
		163.098,112.424 163.098,114.52 162.397,115.916 161.694,118.012 160.292,119.408 158.889,120.806 157.487,121.504 
		155.381,122.202 153.979,122.202 151.875,122.202 150.473,121.504 148.368,120.806 146.965,119.408 146.264,118.012 
		144.862,115.916 144.862,114.52 144.161,112.424 144.862,110.328 144.862,108.232 146.264,106.836 146.965,105.438 
		148.368,104.042 150.473,103.344 151.875,102.645 	"/>
	<polyline fill="none" stroke="#3A3A3D" stroke-width="0" stroke-linecap="square" stroke-miterlimit="10" points="153.979,102.645 
		155.381,102.645 157.487,103.344 158.889,104.042 160.292,105.438 161.694,106.836 162.397,108.232 163.098,110.328 
		163.098,112.424 163.098,114.52 162.397,115.916 161.694,118.012 160.292,119.408 158.889,120.806 157.487,121.504 
		155.381,122.202 153.979,122.202 151.875,122.202 150.473,121.504 148.368,120.806 146.965,119.408 146.264,118.012 
		144.862,115.916 144.862,114.52 144.161,112.424 144.862,110.328 144.862,108.232 146.264,106.836 146.965,105.438 
		148.368,104.042 150.473,103.344 151.875,102.645 153.979,102.645 	"/>
	<polygon fill-rule="evenodd" fill="#C1CEDA" points="153.979,128.489 155.381,129.188 157.487,129.886 158.889,130.584 
		160.292,131.981 161.694,133.378 162.397,134.775 163.098,136.87 163.098,138.966 163.098,141.062 162.397,142.458 
		161.694,143.855 160.292,145.951 158.889,146.649 157.487,148.046 155.381,148.745 153.979,148.745 151.875,148.745 
		150.473,148.046 148.368,146.649 146.965,145.951 146.264,143.855 144.862,142.458 144.862,141.062 144.161,138.966 
		144.862,136.87 144.862,134.775 146.264,133.378 146.965,131.981 148.368,130.584 150.473,129.886 151.875,129.188 	"/>
	<polygon fill="none" stroke="#FFFFFF" stroke-width="0" stroke-linecap="square" stroke-miterlimit="10" points="153.979,128.489 
		155.381,129.188 157.487,129.886 158.889,130.584 160.292,131.981 161.694,133.378 162.397,134.775 163.098,136.87 
		163.098,138.966 163.098,141.062 162.397,142.458 161.694,143.855 160.292,145.951 158.889,146.649 157.487,148.046 
		155.381,148.745 153.979,148.745 151.875,148.745 150.473,148.046 148.368,146.649 146.965,145.951 146.264,143.855 
		144.862,142.458 144.862,141.062 144.161,138.966 144.862,136.87 144.862,134.775 146.264,133.378 146.965,131.981 
		148.368,130.584 150.473,129.886 151.875,129.188 	"/>
	<polyline fill="none" stroke="#3A3A3D" stroke-width="0" stroke-linecap="square" stroke-miterlimit="10" points="153.979,128.489 
		155.381,129.188 157.487,129.886 158.889,130.584 160.292,131.981 161.694,133.378 162.397,134.775 163.098,136.87 
		163.098,138.966 163.098,141.062 162.397,142.458 161.694,143.855 160.292,145.951 158.889,146.649 157.487,148.046 
		155.381,148.745 153.979,148.745 151.875,148.745 150.473,148.046 148.368,146.649 146.965,145.951 146.264,143.855 
		144.862,142.458 144.862,141.062 144.161,138.966 144.862,136.87 144.862,134.775 146.264,133.378 146.965,131.981 
		148.368,130.584 150.473,129.886 151.875,129.188 153.979,128.489 	"/>
	<polygon fill-rule="evenodd" fill="#C1CEDA" points="153.979,155.031 155.381,155.729 157.487,155.729 158.889,157.127 
		160.292,157.825 161.694,159.921 162.397,161.317 163.098,163.413 163.098,165.509 163.098,166.905 162.397,169.001 
		161.694,171.097 160.292,172.493 158.889,173.191 157.487,174.589 155.381,174.589 153.979,175.287 151.875,174.589 
		150.473,174.589 148.368,173.191 146.965,172.493 146.264,171.097 144.862,169.001 144.862,166.905 144.161,165.509 
		144.862,163.413 144.862,161.317 146.264,159.921 146.965,157.825 148.368,157.127 150.473,155.729 151.875,155.729 	"/>
	<polygon fill="none" stroke="#FFFFFF" stroke-width="0" stroke-linecap="square" stroke-miterlimit="10" points="153.979,155.031 
		155.381,155.729 157.487,155.729 158.889,157.127 160.292,157.825 161.694,159.921 162.397,161.317 163.098,163.413 
		163.098,165.509 163.098,166.905 162.397,169.001 161.694,171.097 160.292,172.493 158.889,173.191 157.487,174.589 
		155.381,174.589 153.979,175.287 151.875,174.589 150.473,174.589 148.368,173.191 146.965,172.493 146.264,171.097 
		144.862,169.001 144.862,166.905 144.161,165.509 144.862,163.413 144.862,161.317 146.264,159.921 146.965,157.825 
		148.368,157.127 150.473,155.729 151.875,155.729 	"/>
	<polyline fill="none" stroke="#3A3A3D" stroke-width="0" stroke-linecap="square" stroke-miterlimit="10" points="153.979,155.031 
		155.381,155.729 157.487,155.729 158.889,157.127 160.292,157.825 161.694,159.921 162.397,161.317 163.098,163.413 
		163.098,165.509 163.098,166.905 162.397,169.001 161.694,171.097 160.292,172.493 158.889,173.191 157.487,174.589 
		155.381,174.589 153.979,175.287 151.875,174.589 150.473,174.589 148.368,173.191 146.965,172.493 146.264,171.097 
		144.862,169.001 144.862,166.905 144.161,165.509 144.862,163.413 144.862,161.317 146.264,159.921 146.965,157.825 
		148.368,157.127 150.473,155.729 151.875,155.729 153.979,155.031 	"/>
	<polygon fill-rule="evenodd" fill="#86ABC4" points="191.153,62.832 192.555,62.832 194.661,63.529 196.063,64.927 197.465,65.625 
		198.868,67.022 199.569,69.117 200.272,70.515 200.272,72.61 200.272,74.705 199.569,76.801 198.868,78.198 197.465,79.596 
		196.063,80.992 194.661,81.69 192.555,82.389 191.153,83.088 189.049,82.389 186.944,81.69 185.542,80.992 184.139,79.596 
		183.438,78.198 182.737,76.801 182.036,74.705 181.334,72.61 182.036,70.515 182.737,69.117 183.438,67.022 184.139,65.625 
		185.542,64.927 186.944,63.529 189.049,62.832 	"/>
	<polygon fill="none" stroke="#FFFFFF" stroke-width="0" stroke-linecap="square" stroke-miterlimit="10" points="191.153,62.832 
		192.555,62.832 194.661,63.529 196.063,64.927 197.465,65.625 198.868,67.022 199.569,69.117 200.272,70.515 200.272,72.61 
		200.272,74.705 199.569,76.801 198.868,78.198 197.465,79.596 196.063,80.992 194.661,81.69 192.555,82.389 191.153,83.088 
		189.049,82.389 186.944,81.69 185.542,80.992 184.139,79.596 183.438,78.198 182.737,76.801 182.036,74.705 181.334,72.61 
		182.036,70.515 182.737,69.117 183.438,67.022 184.139,65.625 185.542,64.927 186.944,63.529 189.049,62.832 	"/>
	<polyline fill="none" stroke="#3A3A3D" stroke-width="0" stroke-linecap="square" stroke-miterlimit="10" points="191.153,62.832 
		192.555,62.832 194.661,63.529 196.063,64.927 197.465,65.625 198.868,67.022 199.569,69.117 200.272,70.515 200.272,72.61 
		200.272,74.705 199.569,76.801 198.868,78.198 197.465,79.596 196.063,80.992 194.661,81.69 192.555,82.389 191.153,83.088 
		189.049,82.389 186.944,81.69 185.542,80.992 184.139,79.596 183.438,78.198 182.737,76.801 182.036,74.705 181.334,72.61 
		182.036,70.515 182.737,69.117 183.438,67.022 184.139,65.625 185.542,64.927 186.944,63.529 189.049,62.832 191.153,62.832 	"/>
	<polygon fill-rule="evenodd" fill="#86ABC4" points="191.153,89.374 192.555,89.374 194.661,90.072 196.063,90.771 197.465,92.168 
		198.868,93.564 199.569,94.962 200.272,97.057 200.272,99.152 200.272,101.248 199.569,103.344 198.868,104.74 197.465,106.138 
		196.063,107.534 194.661,108.232 192.555,108.932 191.153,108.932 189.049,108.932 186.944,108.232 185.542,107.534 
		184.139,106.138 183.438,104.74 182.737,103.344 182.036,101.248 181.334,99.152 182.036,97.057 182.737,94.962 183.438,93.564 
		184.139,92.168 185.542,90.771 186.944,90.072 189.049,89.374 	"/>
	<polygon fill="none" stroke="#FFFFFF" stroke-width="0" stroke-linecap="square" stroke-miterlimit="10" points="191.153,89.374 
		192.555,89.374 194.661,90.072 196.063,90.771 197.465,92.168 198.868,93.564 199.569,94.962 200.272,97.057 200.272,99.152 
		200.272,101.248 199.569,103.344 198.868,104.74 197.465,106.138 196.063,107.534 194.661,108.232 192.555,108.932 
		191.153,108.932 189.049,108.932 186.944,108.232 185.542,107.534 184.139,106.138 183.438,104.74 182.737,103.344 
		182.036,101.248 181.334,99.152 182.036,97.057 182.737,94.962 183.438,93.564 184.139,92.168 185.542,90.771 186.944,90.072 
		189.049,89.374 	"/>
	<polyline fill="none" stroke="#3A3A3D" stroke-width="0" stroke-linecap="square" stroke-miterlimit="10" points="191.153,89.374 
		192.555,89.374 194.661,90.072 196.063,90.771 197.465,92.168 198.868,93.564 199.569,94.962 200.272,97.057 200.272,99.152 
		200.272,101.248 199.569,103.344 198.868,104.74 197.465,106.138 196.063,107.534 194.661,108.232 192.555,108.932 
		191.153,108.932 189.049,108.932 186.944,108.232 185.542,107.534 184.139,106.138 183.438,104.74 182.737,103.344 
		182.036,101.248 181.334,99.152 182.036,97.057 182.737,94.962 183.438,93.564 184.139,92.168 185.542,90.771 186.944,90.072 
		189.049,89.374 191.153,89.374 	"/>
	
		<line fill="none" stroke="#3A3A3D" stroke-width="0" stroke-linecap="square" stroke-miterlimit="10" x1="88.75" y1="32.797" x2="106.986" y2="32.797"/>
	<polyline fill="none" stroke="#3A3A3D" stroke-width="0" stroke-linecap="square" stroke-miterlimit="10" points="106.986,59.339 
		88.75,32.797 106.986,85.881 	"/>
	
		<line fill="none" stroke="#3A3A3D" stroke-width="0" stroke-linecap="square" stroke-miterlimit="10" x1="88.75" y1="32.797" x2="106.986" y2="112.424"/>
	<polyline fill="none" stroke="#3A3A3D" stroke-width="0" stroke-linecap="square" stroke-miterlimit="10" points="106.986,112.424 
		88.75,32.797 106.986,165.509 	"/>
	<polyline fill="none" stroke="#3A3A3D" stroke-width="0" stroke-linecap="square" stroke-miterlimit="10" points="106.986,112.424 
		88.75,32.797 106.986,138.966 	"/>
	
		<line fill="none" stroke="#3A3A3D" stroke-width="0" stroke-linecap="square" stroke-miterlimit="10" x1="88.75" y1="59.339" x2="106.986" y2="32.797"/>
	<polyline fill="none" stroke="#3A3A3D" stroke-width="0" stroke-linecap="square" stroke-miterlimit="10" points="88.75,85.881 
		106.986,32.797 88.75,59.339 	"/>
	<polyline fill="none" stroke="#3A3A3D" stroke-width="0" stroke-linecap="square" stroke-miterlimit="10" points="106.986,32.797 
		88.75,59.339 106.986,165.509 	"/>
	<polyline fill="none" stroke="#3A3A3D" stroke-width="0" stroke-linecap="square" stroke-miterlimit="10" points="106.986,32.797 
		88.75,59.339 106.986,138.966 	"/>
	<polyline fill="none" stroke="#3A3A3D" stroke-width="0" stroke-linecap="square" stroke-miterlimit="10" points="106.986,32.797 
		88.75,59.339 106.986,112.424 	"/>
	<polyline fill="none" stroke="#3A3A3D" stroke-width="0" stroke-linecap="square" stroke-miterlimit="10" points="106.986,32.797 
		88.75,59.339 106.986,85.881 	"/>
	<polyline fill="none" stroke="#3A3A3D" stroke-width="0" stroke-linecap="square" stroke-miterlimit="10" points="106.986,32.797 
		88.75,59.339 106.986,59.339 	"/>
	
		<line fill="none" stroke="#3A3A3D" stroke-width="0" stroke-linecap="square" stroke-miterlimit="10" x1="88.75" y1="85.881" x2="106.986" y2="59.339"/>
	<polyline fill="none" stroke="#3A3A3D" stroke-width="0" stroke-linecap="square" stroke-miterlimit="10" points="106.986,59.339 
		88.75,85.881 106.986,112.424 	"/>
	<polyline fill="none" stroke="#3A3A3D" stroke-width="0" stroke-linecap="square" stroke-miterlimit="10" points="106.986,59.339 
		88.75,85.881 106.986,85.881 	"/>
	
		<line fill="none" stroke="#3A3A3D" stroke-width="0" stroke-linecap="square" stroke-miterlimit="10" x1="88.75" y1="112.424" x2="106.986" y2="112.424"/>
	
		<line fill="none" stroke="#3A3A3D" stroke-width="0" stroke-linecap="square" stroke-miterlimit="10" x1="88.75" y1="85.881" x2="106.986" y2="138.966"/>
	<polyline fill="none" stroke="#3A3A3D" stroke-width="0" stroke-linecap="square" stroke-miterlimit="10" points="106.986,138.966 
		88.75,85.881 106.986,165.509 	"/>
	
		<line fill="none" stroke="#3A3A3D" stroke-width="0" stroke-linecap="square" stroke-miterlimit="10" x1="88.75" y1="112.424" x2="106.986" y2="85.881"/>
	<polyline fill="none" stroke="#3A3A3D" stroke-width="0" stroke-linecap="square" stroke-miterlimit="10" points="106.986,85.881 
		88.75,112.424 106.986,165.509 	"/>
	<polyline fill="none" stroke="#3A3A3D" stroke-width="0" stroke-linecap="square" stroke-miterlimit="10" points="106.986,85.881 
		88.75,112.424 106.986,138.966 	"/>
	<polyline fill="none" stroke="#3A3A3D" stroke-width="0" stroke-linecap="square" stroke-miterlimit="10" points="106.986,85.881 
		88.75,112.424 106.986,32.797 	"/>
	<polyline fill="none" stroke="#3A3A3D" stroke-width="0" stroke-linecap="square" stroke-miterlimit="10" points="106.986,85.881 
		88.75,112.424 106.986,59.339 	"/>
	
		<line fill="none" stroke="#3A3A3D" stroke-width="0" stroke-linecap="square" stroke-miterlimit="10" x1="88.75" y1="138.966" x2="106.986" y2="32.797"/>
	<polyline fill="none" stroke="#3A3A3D" stroke-width="0" stroke-linecap="square" stroke-miterlimit="10" points="88.75,165.509 
		106.986,32.797 88.75,138.966 	"/>
	<polyline fill="none" stroke="#3A3A3D" stroke-width="0" stroke-linecap="square" stroke-miterlimit="10" points="106.986,32.797 
		88.75,138.966 106.986,165.509 	"/>
	<polyline fill="none" stroke="#3A3A3D" stroke-width="0" stroke-linecap="square" stroke-miterlimit="10" points="106.986,32.797 
		88.75,138.966 106.986,138.966 	"/>
	<polyline fill="none" stroke="#3A3A3D" stroke-width="0" stroke-linecap="square" stroke-miterlimit="10" points="106.986,32.797 
		88.75,138.966 106.986,112.424 	"/>
	<polyline fill="none" stroke="#3A3A3D" stroke-width="0" stroke-linecap="square" stroke-miterlimit="10" points="106.986,32.797 
		88.75,138.966 106.986,85.881 	"/>
	<polyline fill="none" stroke="#3A3A3D" stroke-width="0" stroke-linecap="square" stroke-miterlimit="10" points="106.986,32.797 
		88.75,138.966 106.986,59.339 	"/>
	
		<line fill="none" stroke="#3A3A3D" stroke-width="0" stroke-linecap="square" stroke-miterlimit="10" x1="88.75" y1="165.509" x2="106.986" y2="59.339"/>
	<polyline fill="none" stroke="#3A3A3D" stroke-width="0" stroke-linecap="square" stroke-miterlimit="10" points="106.986,59.339 
		88.75,165.509 106.986,165.509 	"/>
	<polyline fill="none" stroke="#3A3A3D" stroke-width="0" stroke-linecap="square" stroke-miterlimit="10" points="106.986,59.339 
		88.75,165.509 106.986,138.966 	"/>
	<polyline fill="none" stroke="#3A3A3D" stroke-width="0" stroke-linecap="square" stroke-miterlimit="10" points="106.986,59.339 
		88.75,165.509 106.986,112.424 	"/>
	<polyline fill="none" stroke="#3A3A3D" stroke-width="0" stroke-linecap="square" stroke-miterlimit="10" points="106.986,59.339 
		88.75,165.509 106.986,85.881 	"/>
	
		<line fill="none" stroke="#3A3A3D" stroke-width="0" stroke-linecap="square" stroke-miterlimit="10" x1="125.924" y1="32.797" x2="144.161" y2="32.797"/>
	<polyline fill="none" stroke="#3A3A3D" stroke-width="0" stroke-linecap="square" stroke-miterlimit="10" points="144.161,59.339 
		125.924,32.797 144.161,85.881 	"/>
	
		<line fill="none" stroke="#3A3A3D" stroke-width="0" stroke-linecap="square" stroke-miterlimit="10" x1="125.924" y1="32.797" x2="144.161" y2="112.424"/>
	<polyline fill="none" stroke="#3A3A3D" stroke-width="0" stroke-linecap="square" stroke-miterlimit="10" points="144.161,112.424 
		125.924,32.797 144.161,165.509 	"/>
	<polyline fill="none" stroke="#3A3A3D" stroke-width="0" stroke-linecap="square" stroke-miterlimit="10" points="144.161,112.424 
		125.924,32.797 144.161,138.966 	"/>
	
		<line fill="none" stroke="#3A3A3D" stroke-width="0" stroke-linecap="square" stroke-miterlimit="10" x1="125.924" y1="59.339" x2="144.161" y2="32.797"/>
	<polyline fill="none" stroke="#3A3A3D" stroke-width="0" stroke-linecap="square" stroke-miterlimit="10" points="125.924,85.881 
		144.161,32.797 125.924,59.339 	"/>
	<polyline fill="none" stroke="#3A3A3D" stroke-width="0" stroke-linecap="square" stroke-miterlimit="10" points="144.161,32.797 
		125.924,59.339 144.161,165.509 	"/>
	<polyline fill="none" stroke="#3A3A3D" stroke-width="0" stroke-linecap="square" stroke-miterlimit="10" points="144.161,32.797 
		125.924,59.339 144.161,138.966 	"/>
	<polyline fill="none" stroke="#3A3A3D" stroke-width="0" stroke-linecap="square" stroke-miterlimit="10" points="144.161,32.797 
		125.924,59.339 144.161,112.424 	"/>
	<polyline fill="none" stroke="#3A3A3D" stroke-width="0" stroke-linecap="square" stroke-miterlimit="10" points="144.161,32.797 
		125.924,59.339 144.161,85.881 	"/>
	<polyline fill="none" stroke="#3A3A3D" stroke-width="0" stroke-linecap="square" stroke-miterlimit="10" points="144.161,32.797 
		125.924,59.339 144.161,59.339 	"/>
	
		<line fill="none" stroke="#3A3A3D" stroke-width="0" stroke-linecap="square" stroke-miterlimit="10" x1="125.924" y1="85.881" x2="144.161" y2="59.339"/>
	<polyline fill="none" stroke="#3A3A3D" stroke-width="0" stroke-linecap="square" stroke-miterlimit="10" points="144.161,59.339 
		125.924,85.881 144.161,112.424 	"/>
	<polyline fill="none" stroke="#3A3A3D" stroke-width="0" stroke-linecap="square" stroke-miterlimit="10" points="144.161,59.339 
		125.924,85.881 144.161,85.881 	"/>
	
		<line fill="none" stroke="#3A3A3D" stroke-width="0" stroke-linecap="square" stroke-miterlimit="10" x1="125.924" y1="112.424" x2="144.161" y2="112.424"/>
	
		<line fill="none" stroke="#3A3A3D" stroke-width="0" stroke-linecap="square" stroke-miterlimit="10" x1="125.924" y1="85.881" x2="144.161" y2="138.966"/>
	<polyline fill="none" stroke="#3A3A3D" stroke-width="0" stroke-linecap="square" stroke-miterlimit="10" points="144.161,138.966 
		125.924,85.881 144.161,165.509 	"/>
	
		<line fill="none" stroke="#3A3A3D" stroke-width="0" stroke-linecap="square" stroke-miterlimit="10" x1="125.924" y1="112.424" x2="144.161" y2="85.881"/>
	<polyline fill="none" stroke="#3A3A3D" stroke-width="0" stroke-linecap="square" stroke-miterlimit="10" points="144.161,85.881 
		125.924,112.424 144.161,165.509 	"/>
	<polyline fill="none" stroke="#3A3A3D" stroke-width="0" stroke-linecap="square" stroke-miterlimit="10" points="144.161,85.881 
		125.924,112.424 144.161,138.966 	"/>
	<polyline fill="none" stroke="#3A3A3D" stroke-width="0" stroke-linecap="square" stroke-miterlimit="10" points="144.161,85.881 
		125.924,112.424 144.161,32.797 	"/>
	<polyline fill="none" stroke="#3A3A3D" stroke-width="0" stroke-linecap="square" stroke-miterlimit="10" points="144.161,85.881 
		125.924,112.424 144.161,59.339 	"/>
	
		<line fill="none" stroke="#3A3A3D" stroke-width="0" stroke-linecap="square" stroke-miterlimit="10" x1="125.924" y1="138.966" x2="144.161" y2="32.797"/>
	<polyline fill="none" stroke="#3A3A3D" stroke-width="0" stroke-linecap="square" stroke-miterlimit="10" points="125.924,165.509 
		144.161,32.797 125.924,138.966 	"/>
	<polyline fill="none" stroke="#3A3A3D" stroke-width="0" stroke-linecap="square" stroke-miterlimit="10" points="144.161,32.797 
		125.924,138.966 144.161,165.509 	"/>
	<polyline fill="none" stroke="#3A3A3D" stroke-width="0" stroke-linecap="square" stroke-miterlimit="10" points="144.161,32.797 
		125.924,138.966 144.161,138.966 	"/>
	<polyline fill="none" stroke="#3A3A3D" stroke-width="0" stroke-linecap="square" stroke-miterlimit="10" points="144.161,32.797 
		125.924,138.966 144.161,112.424 	"/>
	<polyline fill="none" stroke="#3A3A3D" stroke-width="0" stroke-linecap="square" stroke-miterlimit="10" points="144.161,32.797 
		125.924,138.966 144.161,85.881 	"/>
	<polyline fill="none" stroke="#3A3A3D" stroke-width="0" stroke-linecap="square" stroke-miterlimit="10" points="144.161,32.797 
		125.924,138.966 144.161,59.339 	"/>
	
		<line fill="none" stroke="#3A3A3D" stroke-width="0" stroke-linecap="square" stroke-miterlimit="10" x1="125.924" y1="165.509" x2="144.161" y2="59.339"/>
	<polyline fill="none" stroke="#3A3A3D" stroke-width="0" stroke-linecap="square" stroke-miterlimit="10" points="144.161,59.339 
		125.924,165.509 144.161,165.509 	"/>
	<polyline fill="none" stroke="#3A3A3D" stroke-width="0" stroke-linecap="square" stroke-miterlimit="10" points="144.161,59.339 
		125.924,165.509 144.161,138.966 	"/>
	<polyline fill="none" stroke="#3A3A3D" stroke-width="0" stroke-linecap="square" stroke-miterlimit="10" points="144.161,59.339 
		125.924,165.509 144.161,112.424 	"/>
	<polyline fill="none" stroke="#3A3A3D" stroke-width="0" stroke-linecap="square" stroke-miterlimit="10" points="144.161,59.339 
		125.924,165.509 144.161,85.881 	"/>
	<polygon fill-rule="evenodd" fill="#86ABC4" points="42.458,36.289 43.862,36.988 45.966,36.988 47.369,38.385 48.771,39.083 
		49.472,40.48 50.875,42.576 50.875,43.973 51.578,46.068 50.875,48.163 50.875,50.259 49.472,51.656 48.771,53.751 47.369,54.449 
		45.966,55.148 43.862,55.847 42.458,56.545 40.355,55.847 38.25,55.148 36.847,54.449 35.445,53.751 34.042,51.656 33.341,50.259 
		32.64,48.163 32.64,46.068 32.64,43.973 33.341,42.576 34.042,40.48 35.445,39.083 36.847,38.385 38.25,36.988 40.355,36.988 	"/>
	<polygon fill="none" stroke="#FFFFFF" stroke-width="0" stroke-linecap="square" stroke-miterlimit="10" points="42.458,36.289 
		43.862,36.988 45.966,36.988 47.369,38.385 48.771,39.083 49.472,40.48 50.875,42.576 50.875,43.973 51.578,46.068 50.875,48.163 
		50.875,50.259 49.472,51.656 48.771,53.751 47.369,54.449 45.966,55.148 43.862,55.847 42.458,56.545 40.355,55.847 38.25,55.148 
		36.847,54.449 35.445,53.751 34.042,51.656 33.341,50.259 32.64,48.163 32.64,46.068 32.64,43.973 33.341,42.576 34.042,40.48 
		35.445,39.083 36.847,38.385 38.25,36.988 40.355,36.988 	"/>
	<polyline fill="none" stroke="#3A3A3D" stroke-width="0" stroke-linecap="square" stroke-miterlimit="10" points="42.458,36.289 
		43.862,36.988 45.966,36.988 47.369,38.385 48.771,39.083 49.472,40.48 50.875,42.576 50.875,43.973 51.578,46.068 50.875,48.163 
		50.875,50.259 49.472,51.656 48.771,53.751 47.369,54.449 45.966,55.148 43.862,55.847 42.458,56.545 40.355,55.847 38.25,55.148 
		36.847,54.449 35.445,53.751 34.042,51.656 33.341,50.259 32.64,48.163 32.64,46.068 32.64,43.973 33.341,42.576 34.042,40.48 
		35.445,39.083 36.847,38.385 38.25,36.988 40.355,36.988 42.458,36.289 	"/>
	<polygon fill-rule="evenodd" fill="#86ABC4" points="42.458,62.832 43.862,62.832 45.966,63.529 47.369,64.927 48.771,65.625 
		49.472,67.022 50.875,69.117 50.875,70.515 51.578,72.61 50.875,74.705 50.875,76.801 49.472,78.198 48.771,79.596 47.369,80.992 
		45.966,81.69 43.862,82.389 42.458,83.088 40.355,82.389 38.25,81.69 36.847,80.992 35.445,79.596 34.042,78.198 33.341,76.801 
		32.64,74.705 32.64,72.61 32.64,70.515 33.341,69.117 34.042,67.022 35.445,65.625 36.847,64.927 38.25,63.529 40.355,62.832 	"/>
	<polygon fill="none" stroke="#FFFFFF" stroke-width="0" stroke-linecap="square" stroke-miterlimit="10" points="42.458,62.832 
		43.862,62.832 45.966,63.529 47.369,64.927 48.771,65.625 49.472,67.022 50.875,69.117 50.875,70.515 51.578,72.61 50.875,74.705 
		50.875,76.801 49.472,78.198 48.771,79.596 47.369,80.992 45.966,81.69 43.862,82.389 42.458,83.088 40.355,82.389 38.25,81.69 
		36.847,80.992 35.445,79.596 34.042,78.198 33.341,76.801 32.64,74.705 32.64,72.61 32.64,70.515 33.341,69.117 34.042,67.022 
		35.445,65.625 36.847,64.927 38.25,63.529 40.355,62.832 	"/>
	<polyline fill="none" stroke="#3A3A3D" stroke-width="0" stroke-linecap="square" stroke-miterlimit="10" points="42.458,62.832 
		43.862,62.832 45.966,63.529 47.369,64.927 48.771,65.625 49.472,67.022 50.875,69.117 50.875,70.515 51.578,72.61 50.875,74.705 
		50.875,76.801 49.472,78.198 48.771,79.596 47.369,80.992 45.966,81.69 43.862,82.389 42.458,83.088 40.355,82.389 38.25,81.69 
		36.847,80.992 35.445,79.596 34.042,78.198 33.341,76.801 32.64,74.705 32.64,72.61 32.64,70.515 33.341,69.117 34.042,67.022 
		35.445,65.625 36.847,64.927 38.25,63.529 40.355,62.832 42.458,62.832 	"/>
	<polygon fill-rule="evenodd" fill="#86ABC4" points="42.458,89.374 43.862,89.374 45.966,90.072 47.369,90.771 48.771,92.168 
		49.472,93.564 50.875,94.962 50.875,97.057 51.578,99.152 50.875,101.248 50.875,103.344 49.472,104.74 48.771,106.138 
		47.369,107.534 45.966,108.232 43.862,108.932 42.458,108.932 40.355,108.932 38.25,108.232 36.847,107.534 35.445,106.138 
		34.042,104.74 33.341,103.344 32.64,101.248 32.64,99.152 32.64,97.057 33.341,94.962 34.042,93.564 35.445,92.168 36.847,90.771 
		38.25,90.072 40.355,89.374 	"/>
	<polygon fill="none" stroke="#FFFFFF" stroke-width="0" stroke-linecap="square" stroke-miterlimit="10" points="42.458,89.374 
		43.862,89.374 45.966,90.072 47.369,90.771 48.771,92.168 49.472,93.564 50.875,94.962 50.875,97.057 51.578,99.152 
		50.875,101.248 50.875,103.344 49.472,104.74 48.771,106.138 47.369,107.534 45.966,108.232 43.862,108.932 42.458,108.932 
		40.355,108.932 38.25,108.232 36.847,107.534 35.445,106.138 34.042,104.74 33.341,103.344 32.64,101.248 32.64,99.152 
		32.64,97.057 33.341,94.962 34.042,93.564 35.445,92.168 36.847,90.771 38.25,90.072 40.355,89.374 	"/>
	<polyline fill="none" stroke="#3A3A3D" stroke-width="0" stroke-linecap="square" stroke-miterlimit="10" points="42.458,89.374 
		43.862,89.374 45.966,90.072 47.369,90.771 48.771,92.168 49.472,93.564 50.875,94.962 50.875,97.057 51.578,99.152 
		50.875,101.248 50.875,103.344 49.472,104.74 48.771,106.138 47.369,107.534 45.966,108.232 43.862,108.932 42.458,108.932 
		40.355,108.932 38.25,108.232 36.847,107.534 35.445,106.138 34.042,104.74 33.341,103.344 32.64,101.248 32.64,99.152 
		32.64,97.057 33.341,94.962 34.042,93.564 35.445,92.168 36.847,90.771 38.25,90.072 40.355,89.374 42.458,89.374 	"/>
	<polygon fill-rule="evenodd" fill="#86ABC4" points="42.458,115.218 43.862,115.916 45.966,116.614 47.369,117.313 48.771,118.71 
		49.472,120.107 50.875,121.504 50.875,123.6 51.578,125.695 50.875,127.79 50.875,129.188 49.472,131.283 48.771,132.68 
		47.369,133.378 45.966,134.775 43.862,135.474 42.458,135.474 40.355,135.474 38.25,134.775 36.847,133.378 35.445,132.68 
		34.042,131.283 33.341,129.188 32.64,127.79 32.64,125.695 32.64,123.6 33.341,121.504 34.042,120.107 35.445,118.71 
		36.847,117.313 38.25,116.614 40.355,115.916 	"/>
	<polygon fill="none" stroke="#FFFFFF" stroke-width="0" stroke-linecap="square" stroke-miterlimit="10" points="42.458,115.218 
		43.862,115.916 45.966,116.614 47.369,117.313 48.771,118.71 49.472,120.107 50.875,121.504 50.875,123.6 51.578,125.695 
		50.875,127.79 50.875,129.188 49.472,131.283 48.771,132.68 47.369,133.378 45.966,134.775 43.862,135.474 42.458,135.474 
		40.355,135.474 38.25,134.775 36.847,133.378 35.445,132.68 34.042,131.283 33.341,129.188 32.64,127.79 32.64,125.695 
		32.64,123.6 33.341,121.504 34.042,120.107 35.445,118.71 36.847,117.313 38.25,116.614 40.355,115.916 	"/>
	<polyline fill="none" stroke="#3A3A3D" stroke-width="0" stroke-linecap="square" stroke-miterlimit="10" points="42.458,115.218 
		43.862,115.916 45.966,116.614 47.369,117.313 48.771,118.71 49.472,120.107 50.875,121.504 50.875,123.6 51.578,125.695 
		50.875,127.79 50.875,129.188 49.472,131.283 48.771,132.68 47.369,133.378 45.966,134.775 43.862,135.474 42.458,135.474 
		40.355,135.474 38.25,134.775 36.847,133.378 35.445,132.68 34.042,131.283 33.341,129.188 32.64,127.79 32.64,125.695 
		32.64,123.6 33.341,121.504 34.042,120.107 35.445,118.71 36.847,117.313 38.25,116.614 40.355,115.916 42.458,115.218 	"/>
	<polygon fill-rule="evenodd" fill="#86ABC4" points="42.458,141.76 43.862,142.458 45.966,143.157 47.369,143.855 48.771,144.554 
		49.472,146.649 50.875,148.046 50.875,150.142 51.578,152.237 50.875,154.333 50.875,155.729 49.472,157.127 48.771,159.222 
		47.369,159.921 45.966,161.317 43.862,161.317 42.458,162.016 40.355,161.317 38.25,161.317 36.847,159.921 35.445,159.222 
		34.042,157.127 33.341,155.729 32.64,154.333 32.64,152.237 32.64,150.142 33.341,148.046 34.042,146.649 35.445,144.554 
		36.847,143.855 38.25,143.157 40.355,142.458 	"/>
	<polygon fill="none" stroke="#FFFFFF" stroke-width="0" stroke-linecap="square" stroke-miterlimit="10" points="42.458,141.76 
		43.862,142.458 45.966,143.157 47.369,143.855 48.771,144.554 49.472,146.649 50.875,148.046 50.875,150.142 51.578,152.237 
		50.875,154.333 50.875,155.729 49.472,157.127 48.771,159.222 47.369,159.921 45.966,161.317 43.862,161.317 42.458,162.016 
		40.355,161.317 38.25,161.317 36.847,159.921 35.445,159.222 34.042,157.127 33.341,155.729 32.64,154.333 32.64,152.237 
		32.64,150.142 33.341,148.046 34.042,146.649 35.445,144.554 36.847,143.855 38.25,143.157 40.355,142.458 	"/>
	<polyline fill="none" stroke="#3A3A3D" stroke-width="0" stroke-linecap="square" stroke-miterlimit="10" points="42.458,141.76 
		43.862,142.458 45.966,143.157 47.369,143.855 48.771,144.554 49.472,146.649 50.875,148.046 50.875,150.142 51.578,152.237 
		50.875,154.333 50.875,155.729 49.472,157.127 48.771,159.222 47.369,159.921 45.966,161.317 43.862,161.317 42.458,162.016 
		40.355,161.317 38.25,161.317 36.847,159.921 35.445,159.222 34.042,157.127 33.341,155.729 32.64,154.333 32.64,152.237 
		32.64,150.142 33.341,148.046 34.042,146.649 35.445,144.554 36.847,143.855 38.25,143.157 40.355,142.458 42.458,141.76 	"/>
	<polygon fill-rule="evenodd" fill="#86ABC4" points="191.153,115.218 192.555,115.916 194.661,116.614 196.063,117.313 
		197.465,118.71 198.868,120.107 199.569,121.504 200.272,123.6 200.272,125.695 200.272,127.79 199.569,129.188 198.868,131.283 
		197.465,132.68 196.063,133.378 194.661,134.775 192.555,135.474 191.153,135.474 189.049,135.474 186.944,134.775 
		185.542,133.378 184.139,132.68 183.438,131.283 182.737,129.188 182.036,127.79 181.334,125.695 182.036,123.6 182.737,121.504 
		183.438,120.107 184.139,118.71 185.542,117.313 186.944,116.614 189.049,115.916 	"/>
	<polygon fill="none" stroke="#FFFFFF" stroke-width="0" stroke-linecap="square" stroke-miterlimit="10" points="191.153,115.218 
		192.555,115.916 194.661,116.614 196.063,117.313 197.465,118.71 198.868,120.107 199.569,121.504 200.272,123.6 200.272,125.695 
		200.272,127.79 199.569,129.188 198.868,131.283 197.465,132.68 196.063,133.378 194.661,134.775 192.555,135.474 191.153,135.474 
		189.049,135.474 186.944,134.775 185.542,133.378 184.139,132.68 183.438,131.283 182.737,129.188 182.036,127.79 181.334,125.695 
		182.036,123.6 182.737,121.504 183.438,120.107 184.139,118.71 185.542,117.313 186.944,116.614 189.049,115.916 	"/>
	<polyline fill="none" stroke="#3A3A3D" stroke-width="0" stroke-linecap="square" stroke-miterlimit="10" points="191.153,115.218 
		192.555,115.916 194.661,116.614 196.063,117.313 197.465,118.71 198.868,120.107 199.569,121.504 200.272,123.6 200.272,125.695 
		200.272,127.79 199.569,129.188 198.868,131.283 197.465,132.68 196.063,133.378 194.661,134.775 192.555,135.474 191.153,135.474 
		189.049,135.474 186.944,134.775 185.542,133.378 184.139,132.68 183.438,131.283 182.737,129.188 182.036,127.79 181.334,125.695 
		182.036,123.6 182.737,121.504 183.438,120.107 184.139,118.71 185.542,117.313 186.944,116.614 189.049,115.916 191.153,115.218 	
		"/>
	
		<line fill="none" stroke="#3A3A3D" stroke-width="0" stroke-linecap="square" stroke-miterlimit="10" x1="51.578" y1="46.068" x2="69.813" y2="32.797"/>
	<polyline fill="none" stroke="#3A3A3D" stroke-width="0" stroke-linecap="square" stroke-miterlimit="10" points="51.578,72.61 
		69.813,32.797 51.578,46.068 	"/>
	<polyline fill="none" stroke="#3A3A3D" stroke-width="0" stroke-linecap="square" stroke-miterlimit="10" points="69.813,32.797 
		51.578,46.068 69.813,165.509 	"/>
	<polyline fill="none" stroke="#3A3A3D" stroke-width="0" stroke-linecap="square" stroke-miterlimit="10" points="69.813,32.797 
		51.578,46.068 69.813,138.966 	"/>
	<polyline fill="none" stroke="#3A3A3D" stroke-width="0" stroke-linecap="square" stroke-miterlimit="10" points="69.813,32.797 
		51.578,46.068 69.813,112.424 	"/>
	<polyline fill="none" stroke="#3A3A3D" stroke-width="0" stroke-linecap="square" stroke-miterlimit="10" points="69.813,32.797 
		51.578,46.068 69.813,85.881 	"/>
	<polyline fill="none" stroke="#3A3A3D" stroke-width="0" stroke-linecap="square" stroke-miterlimit="10" points="69.813,32.797 
		51.578,46.068 69.813,59.339 	"/>
	
		<line fill="none" stroke="#3A3A3D" stroke-width="0" stroke-linecap="square" stroke-miterlimit="10" x1="51.578" y1="72.61" x2="69.813" y2="59.339"/>
	<polyline fill="none" stroke="#3A3A3D" stroke-width="0" stroke-linecap="square" stroke-miterlimit="10" points="69.813,59.339 
		51.578,72.61 69.813,165.509 	"/>
	<polyline fill="none" stroke="#3A3A3D" stroke-width="0" stroke-linecap="square" stroke-miterlimit="10" points="69.813,59.339 
		51.578,72.61 69.813,138.966 	"/>
	<polyline fill="none" stroke="#3A3A3D" stroke-width="0" stroke-linecap="square" stroke-miterlimit="10" points="69.813,59.339 
		51.578,72.61 69.813,112.424 	"/>
	<polyline fill="none" stroke="#3A3A3D" stroke-width="0" stroke-linecap="square" stroke-miterlimit="10" points="69.813,59.339 
		51.578,72.61 69.813,85.881 	"/>
	<polyline fill="none" stroke="#3A3A3D" stroke-width="0" stroke-linecap="square" stroke-miterlimit="10" points="51.578,99.152 
		51.578,100.55 69.813,32.797 	"/>
	
		<line fill="none" stroke="#3A3A3D" stroke-width="0" stroke-linecap="square" stroke-miterlimit="10" x1="51.578" y1="99.152" x2="69.813" y2="32.797"/>
	<polyline fill="none" stroke="#3A3A3D" stroke-width="0" stroke-linecap="square" stroke-miterlimit="10" points="51.578,125.695 
		69.813,32.797 51.578,99.152 	"/>
	<polyline fill="none" stroke="#3A3A3D" stroke-width="0" stroke-linecap="square" stroke-miterlimit="10" points="69.813,32.797 
		51.578,99.152 69.813,165.509 	"/>
	<polyline fill="none" stroke="#3A3A3D" stroke-width="0" stroke-linecap="square" stroke-miterlimit="10" points="69.813,32.797 
		51.578,99.152 69.813,138.966 	"/>
	<polyline fill="none" stroke="#3A3A3D" stroke-width="0" stroke-linecap="square" stroke-miterlimit="10" points="69.813,32.797 
		51.578,99.152 69.813,112.424 	"/>
	<polyline fill="none" stroke="#3A3A3D" stroke-width="0" stroke-linecap="square" stroke-miterlimit="10" points="69.813,32.797 
		51.578,99.152 69.813,85.881 	"/>
	<polyline fill="none" stroke="#3A3A3D" stroke-width="0" stroke-linecap="square" stroke-miterlimit="10" points="69.813,32.797 
		51.578,99.152 69.813,59.339 	"/>
	<polyline fill="none" stroke="#3A3A3D" stroke-width="0" stroke-linecap="square" stroke-miterlimit="10" points="69.813,59.339 
		51.578,125.695 69.813,165.509 	"/>
	<polyline fill="none" stroke="#3A3A3D" stroke-width="0" stroke-linecap="square" stroke-miterlimit="10" points="69.813,59.339 
		51.578,125.695 69.813,138.966 	"/>
	<polyline fill="none" stroke="#3A3A3D" stroke-width="0" stroke-linecap="square" stroke-miterlimit="10" points="69.813,59.339 
		51.578,125.695 69.813,112.424 	"/>
	<polyline fill="none" stroke="#3A3A3D" stroke-width="0" stroke-linecap="square" stroke-miterlimit="10" points="69.813,59.339 
		51.578,125.695 69.813,85.881 	"/>
	<polyline fill="none" stroke="#3A3A3D" stroke-width="0" stroke-linecap="square" stroke-miterlimit="10" points="69.813,32.797 
		51.578,152.237 69.813,165.509 	"/>
	<polyline fill="none" stroke="#3A3A3D" stroke-width="0" stroke-linecap="square" stroke-miterlimit="10" points="69.813,32.797 
		51.578,152.237 69.813,112.424 	"/>
	<polyline fill="none" stroke="#3A3A3D" stroke-width="0" stroke-linecap="square" stroke-miterlimit="10" points="69.813,32.797 
		51.578,152.237 69.813,85.881 	"/>
	<polyline fill="none" stroke="#3A3A3D" stroke-width="0" stroke-linecap="square" stroke-miterlimit="10" points="69.813,32.797 
		51.578,152.237 69.813,59.339 	"/>
	<polyline fill="none" stroke="#3A3A3D" stroke-width="0" stroke-linecap="square" stroke-miterlimit="10" points="163.098,59.339 
		181.334,72.61 163.098,32.797 	"/>
	<polyline fill="none" stroke="#3A3A3D" stroke-width="0" stroke-linecap="square" stroke-miterlimit="10" points="181.334,72.61 
		163.098,32.797 181.334,125.695 	"/>
	<polyline fill="none" stroke="#3A3A3D" stroke-width="0" stroke-linecap="square" stroke-miterlimit="10" points="181.334,72.61 
		163.098,32.797 181.334,99.152 	"/>
	<polyline fill="none" stroke="#3A3A3D" stroke-width="0" stroke-linecap="square" stroke-miterlimit="10" points="181.334,99.152 
		163.098,59.339 181.334,125.695 	"/>
	
		<line fill="none" stroke="#3A3A3D" stroke-width="0" stroke-linecap="square" stroke-miterlimit="10" x1="163.098" y1="85.881" x2="181.334" y2="72.61"/>
	<polyline fill="none" stroke="#3A3A3D" stroke-width="0" stroke-linecap="square" stroke-miterlimit="10" points="163.098,112.424 
		181.334,72.61 163.098,85.881 	"/>
	<polyline fill="none" stroke="#3A3A3D" stroke-width="0" stroke-linecap="square" stroke-miterlimit="10" points="181.334,72.61 
		163.098,85.881 181.334,125.695 	"/>
	<polyline fill="none" stroke="#3A3A3D" stroke-width="0" stroke-linecap="square" stroke-miterlimit="10" points="181.334,72.61 
		163.098,85.881 181.334,99.152 	"/>
	
		<line fill="none" stroke="#3A3A3D" stroke-width="0" stroke-linecap="square" stroke-miterlimit="10" x1="163.098" y1="112.424" x2="181.334" y2="99.152"/>
	<polyline fill="none" stroke="#3A3A3D" stroke-width="0" stroke-linecap="square" stroke-miterlimit="10" points="181.334,99.152 
		163.098,112.424 181.334,125.695 	"/>
	
		<line fill="none" stroke="#3A3A3D" stroke-width="0" stroke-linecap="square" stroke-miterlimit="10" x1="163.098" y1="138.966" x2="181.334" y2="72.61"/>
	<polyline fill="none" stroke="#3A3A3D" stroke-width="0" stroke-linecap="square" stroke-miterlimit="10" points="163.098,165.509 
		181.334,72.61 163.098,138.966 	"/>
	<polyline fill="none" stroke="#3A3A3D" stroke-width="0" stroke-linecap="square" stroke-miterlimit="10" points="181.334,72.61 
		163.098,138.966 181.334,125.695 	"/>
	<polyline fill="none" stroke="#3A3A3D" stroke-width="0" stroke-linecap="square" stroke-miterlimit="10" points="181.334,72.61 
		163.098,138.966 181.334,99.152 	"/>
	
		<line fill="none" stroke="#3A3A3D" stroke-width="0" stroke-linecap="square" stroke-miterlimit="10" x1="163.098" y1="165.509" x2="181.334" y2="99.152"/>
	<polyline fill="none" stroke="#3A3A3D" stroke-width="0" stroke-linecap="square" stroke-miterlimit="10" points="181.334,99.152 
		163.098,165.509 181.334,125.695 	"/>
	
		<line fill="none" stroke="#3B3D40" stroke-width="0" stroke-linecap="square" stroke-miterlimit="10" x1="17.208" y1="46.068" x2="32.64" y2="46.068"/>
	<polyline fill="none" stroke="#3B3D40" stroke-width="0" stroke-linecap="square" stroke-miterlimit="10" points="28.431,43.973 
		31.938,46.068 28.431,48.861 	"/>
	
		<line fill="none" stroke="#3B3D40" stroke-width="0" stroke-linecap="square" stroke-miterlimit="10" x1="17.208" y1="72.61" x2="32.64" y2="72.61"/>
	<polyline fill="none" stroke="#3B3D40" stroke-width="0" stroke-linecap="square" stroke-miterlimit="10" points="28.431,70.515 
		31.938,72.61 28.431,75.404 	"/>
	
		<line fill="none" stroke="#3B3D40" stroke-width="0" stroke-linecap="square" stroke-miterlimit="10" x1="17.208" y1="99.152" x2="32.64" y2="99.152"/>
	<polyline fill="none" stroke="#3B3D40" stroke-width="0" stroke-linecap="square" stroke-miterlimit="10" points="28.431,97.057 
		31.938,99.152 28.431,101.248 	"/>
	
		<line fill="none" stroke="#3B3D40" stroke-width="0" stroke-linecap="square" stroke-miterlimit="10" x1="17.208" y1="125.695" x2="32.64" y2="125.695"/>
	<polyline fill="none" stroke="#3B3D40" stroke-width="0" stroke-linecap="square" stroke-miterlimit="10" points="28.431,122.901 
		31.938,125.695 28.431,127.79 	"/>
	
		<line fill="none" stroke="#3B3D40" stroke-width="0" stroke-linecap="square" stroke-miterlimit="10" x1="17.208" y1="152.237" x2="32.64" y2="152.237"/>
	<polyline fill="none" stroke="#3B3D40" stroke-width="0" stroke-linecap="square" stroke-miterlimit="10" points="28.431,149.443 
		31.938,152.237 28.431,154.333 	"/>
	
		<line fill="none" stroke="#3B3D40" stroke-width="0" stroke-linecap="square" stroke-miterlimit="10" x1="200.272" y1="72.61" x2="215.702" y2="72.61"/>
	<polyline fill="none" stroke="#3B3D40" stroke-width="0" stroke-linecap="square" stroke-miterlimit="10" points="212.194,70.515 
		215,72.61 212.194,75.404 	"/>
	
		<line fill="none" stroke="#3B3D40" stroke-width="0" stroke-linecap="square" stroke-miterlimit="10" x1="200.272" y1="99.152" x2="215.702" y2="99.152"/>
	<polyline fill="none" stroke="#3B3D40" stroke-width="0" stroke-linecap="square" stroke-miterlimit="10" points="212.194,97.057 
		215,99.152 212.194,101.248 	"/>
	
		<line fill="none" stroke="#3B3D40" stroke-width="0" stroke-linecap="square" stroke-miterlimit="10" x1="200.272" y1="125.695" x2="215.702" y2="125.695"/>
	<polyline fill="none" stroke="#3B3D40" stroke-width="0" stroke-linecap="square" stroke-miterlimit="10" points="212.194,122.901 
		215,125.695 212.194,127.79 	"/>
	<text transform="matrix(1 0 0 1 79.2817 14.0288)" font-family="'MyriadPro-Regular'" font-size="12">h</text>
	<text transform="matrix(1 0 0 1 85.9414 14.0288)" font-family="'MyriadPro-Regular'" font-size="12">i</text>
	<text transform="matrix(1 0 0 1 88.7495 14.0288)" font-family="'MyriadPro-Regular'" font-size="12">d</text>
	<text transform="matrix(1 0 0 1 95.5176 14.0288)" font-family="'MyriadPro-Regular'" font-size="12">d</text>
	<text transform="matrix(1 0 0 1 102.2856 14.0288)" font-family="'MyriadPro-Regular'" font-size="12">e</text>
	<text transform="matrix(1 0 0 1 108.2974 14.0288)" font-family="'MyriadPro-Regular'" font-size="12">d</text>
	<text transform="matrix(1 0 0 1 115.0654 14.0288)" font-family="'MyriadPro-Regular'" font-size="12"> </text>
	<text transform="matrix(1 0 0 1 117.6094 14.0288)" font-family="'MyriadPro-Regular'" font-size="12">l</text>
	<text transform="matrix(1 0 0 1 120.4409 14.0288)" font-family="'MyriadPro-Regular'" font-size="12">a</text>
	<text transform="matrix(1 0 0 1 126.1284 14.0288)" font-family="'MyriadPro-Regular'" font-size="12">y</text>
	<text transform="matrix(1 0 0 1 131.6616 14.0288)" font-family="'MyriadPro-Regular'" font-size="12">e</text>
	<text transform="matrix(1 0 0 1 137.6733 14.0288)" font-family="'MyriadPro-Regular'" font-size="12">r</text>
	<text transform="matrix(1 0 0 1 141.5972 14.0288)" font-family="'MyriadPro-Regular'" font-size="12">s</text>
	<text transform="matrix(0.0088 -1 1 0.0088 13.1118 112.4238)" font-family="'MyriadPro-Regular'" font-size="12">input</text>
	<text transform="matrix(-4.371139e-08 -1 1 -4.371139e-08 228.2769 115.2178)" font-family="'MyriadPro-Regular'" font-size="12">output</text>
</g>
</svg>
